<svg width="20" height="18" viewBox="0 0 20 18" fill="none" xmlns="http://www.w3.org/2000/svg">
<path d="M15.4339 0.501015L5.43387 0L0 8.40972L4.56613 17.3205L14.5661 17.8215L20 9.41175L15.4339 0.501015ZM14.6728 1.67891L18.2796 8.7175L10.3805 8.32175L6.77379 1.2832L14.6728 1.67891ZM1.40066 8.47984L5.69289 1.83707L9.29969 8.87566L5.00742 15.5185L1.40066 8.47984ZM13.9266 16.5734L6.02754 16.1776L10.3198 9.5348L18.2188 9.93054L13.9266 16.5734Z" fill="#2C3034"/>
<path d="M12.6926 5.54707C13.0839 5.54707 13.4012 5.22982 13.4012 4.83848C13.4012 4.44713 13.0839 4.12988 12.6926 4.12988C12.3012 4.12988 11.984 4.44713 11.984 4.83848C11.984 5.22982 12.3012 5.54707 12.6926 5.54707Z" fill="#2C3034"/>
<path d="M9.50078 15.3103C9.89213 15.3103 10.2094 14.9931 10.2094 14.6018C10.2094 14.2104 9.89213 13.8932 9.50078 13.8932C9.10944 13.8932 8.79219 14.2104 8.79219 14.6018C8.79219 14.9931 9.10944 15.3103 9.50078 15.3103Z" fill="#2C3034"/>
<path d="M14.6559 12.4494C15.0472 12.4494 15.3645 12.1322 15.3645 11.7408C15.3645 11.3495 15.0472 11.0322 14.6559 11.0322C14.2645 11.0322 13.9473 11.3495 13.9473 11.7408C13.9473 12.1322 14.2645 12.4494 14.6559 12.4494Z" fill="#2C3034"/>
<path d="M5.37149 6.39395C5.76283 6.39395 6.08008 6.0767 6.08008 5.68535C6.08008 5.29401 5.76283 4.97676 5.37149 4.97676C4.98014 4.97676 4.6629 5.29401 4.6629 5.68535C4.6629 6.0767 4.98014 6.39395 5.37149 6.39395Z" fill="#2C3034"/>
<path d="M3.42148 9.37753C3.81283 9.37753 4.13008 9.06028 4.13008 8.66894C4.13008 8.27759 3.81283 7.96034 3.42148 7.96034C3.03014 7.96034 2.71289 8.27759 2.71289 8.66894C2.71289 9.06028 3.03014 9.37753 3.42148 9.37753Z" fill="#2C3034"/>
<path d="M7.0043 9.62051C7.39564 9.62051 7.71289 9.30326 7.71289 8.91192C7.71289 8.52057 7.39564 8.20332 7.0043 8.20332C6.61295 8.20332 6.2957 8.52057 6.2957 8.91192C6.2957 9.30326 6.61295 9.62051 7.0043 9.62051Z" fill="#2C3034"/>
<path d="M5.11524 12.4494C5.50658 12.4494 5.82383 12.1322 5.82383 11.7408C5.82383 11.3495 5.50658 11.0322 5.11524 11.0322C4.72389 11.0322 4.40664 11.3495 4.40664 11.7408C4.40664 12.1322 4.72389 12.4494 5.11524 12.4494Z" fill="#2C3034"/>
</svg>
