<svg width="20" height="22" viewBox="0 0 20 22" fill="none" xmlns="http://www.w3.org/2000/svg">
<path fill-rule="evenodd" clip-rule="evenodd" d="M0 3C0 1.34315 1.34315 0 3 0H7C8.65685 0 10 1.34315 10 3V7C10 8.65685 8.65685 10 7 10H3C1.34315 10 0 8.65685 0 7V3ZM3 2C2.44772 2 2 2.44772 2 3V7C2 7.55228 2.44772 8 3 8H7C7.55228 8 8 7.55228 8 7V3C8 2.44772 7.55228 2 7 2H3Z" fill="#0E1317"/>
<path fill-rule="evenodd" clip-rule="evenodd" d="M12 3C12 2.44772 12.4477 2 13 2H19C19.5523 2 20 2.44772 20 3C20 3.55228 19.5523 4 19 4H13C12.4477 4 12 3.55228 12 3Z" fill="#0E1317"/>
<path fill-rule="evenodd" clip-rule="evenodd" d="M12 7C12 6.44772 12.4477 6 13 6H17C17.5523 6 18 6.44772 18 7C18 7.55228 17.5523 8 17 8H13C12.4477 8 12 7.55228 12 7Z" fill="#0E1317"/>
<path fill-rule="evenodd" clip-rule="evenodd" d="M0 15C0 13.3431 1.34315 12 3 12H7C8.65685 12 10 13.3431 10 15V19C10 20.6569 8.65685 22 7 22H3C1.34315 22 0 20.6569 0 19V15ZM3 14C2.44772 14 2 14.4477 2 15V19C2 19.5523 2.44772 20 3 20H7C7.55228 20 8 19.5523 8 19V15C8 14.4477 7.55228 14 7 14H3Z" fill="#0E1317"/>
<path fill-rule="evenodd" clip-rule="evenodd" d="M12 15C12 14.4477 12.4477 14 13 14H19C19.5523 14 20 14.4477 20 15C20 15.5523 19.5523 16 19 16H13C12.4477 16 12 15.5523 12 15Z" fill="#0E1317"/>
<path fill-rule="evenodd" clip-rule="evenodd" d="M12 19C12 18.4477 12.4477 18 13 18H17C17.5523 18 18 18.4477 18 19C18 19.5523 17.5523 20 17 20H13C12.4477 20 12 19.5523 12 19Z" fill="#0E1317"/>
</svg>
