<svg width="15" height="18" viewBox="0 0 15 18" fill="none" xmlns="http://www.w3.org/2000/svg">
<path fill-rule="evenodd" clip-rule="evenodd" d="M12.4265 5.73251C10.6223 4.12675 9.8916 2.5661 10.0269 0.987407C10.0431 0.816733 10.0104 0.644975 9.93249 0.492249C9.8546 0.339524 9.73477 0.212142 9.5871 0.125052C9.43942 0.0379622 9.27 -0.00523299 9.09866 0.000505785C8.92731 0.00624455 8.76115 0.0607071 8.61963 0.157483C8.01321 0.581744 7.44292 1.05542 6.91464 1.57374C6.07477 2.29186 5.45027 3.22861 5.11042 4.28007C5.05792 4.49875 5.03071 4.72278 5.02926 4.94768C5.02926 5.18693 5.12426 5.41637 5.29344 5.58555C5.46262 5.75473 5.69211 5.84978 5.93137 5.84978C6.17062 5.84978 6.40006 5.75473 6.56924 5.58555C6.73842 5.41637 6.83348 5.18693 6.83348 4.94768C6.82349 4.86076 6.82349 4.77295 6.83348 4.68603C7.09138 3.9679 7.52933 3.32803 8.10542 2.82769L8.28586 2.65629C8.7561 4.36219 9.74236 5.88095 11.1095 7.00445C11.819 7.72665 12.3118 8.63338 12.5318 9.62164C12.7518 10.6099 12.6903 11.64 12.3541 12.5951C12.0179 13.5501 11.4207 14.3917 10.6301 15.0242C9.83956 15.6567 8.88743 16.0548 7.88193 16.1733C6.87644 16.2918 5.85785 16.1259 4.94193 15.6945C4.02601 15.263 3.24949 14.5833 2.70054 13.7326C2.15159 12.8819 1.85225 11.8942 1.83653 10.8819C1.82081 9.86958 2.08935 8.87313 2.61162 8.00578C3.06414 8.87732 3.68562 9.65007 4.43989 10.2789C5.19417 10.9077 6.06614 11.38 7.00488 11.6683C7.23696 11.7282 7.48327 11.6934 7.68966 11.5715C7.89606 11.4497 8.04561 11.2509 8.10542 11.0188C8.16524 10.7868 8.13044 10.5405 8.00863 10.3341C7.88682 10.1277 7.68801 9.97806 7.45593 9.91825C5.82312 9.45817 4.53306 8.1682 3.57682 5.95803C3.51815 5.82379 3.42768 5.70583 3.31319 5.6144C3.19871 5.52297 3.06369 5.46079 2.91979 5.43325C2.77589 5.40572 2.62744 5.41368 2.48729 5.45638C2.34714 5.49908 2.21951 5.57528 2.11541 5.67838C1.10564 6.68749 0.417871 7.97336 0.139023 9.37342C-0.139825 10.7735 0.00280361 12.2248 0.548892 13.5438C1.09498 14.8628 2.01996 15.9902 3.20687 16.7834C4.39378 17.5766 5.7893 18 7.21686 18C8.64442 18 10.0399 17.5766 11.2268 16.7834C12.4137 15.9902 13.3387 14.8628 13.8848 13.5438C14.4309 12.2248 14.5735 10.7735 14.2947 9.37342C14.0159 7.97336 13.328 6.68749 12.3183 5.67838L12.4265 5.73251Z" fill="#2C3034"/>
</svg>
