<svg width="28" height="28" viewBox="0 0 28 28" fill="none" xmlns="http://www.w3.org/2000/svg">
    <path d="M17.5547 7.34844C17.2468 7.34844 16.9969 7.59832 16.9969 7.90625C16.9969 8.21418 17.2468 8.46406 17.5547 8.46406C17.8626 8.46406 18.1125 8.21418 18.1125 7.90625C18.1125 7.59832 17.8626 7.34844 17.5547 7.34844Z" fill="#2C3034" stroke="#2C3034" stroke-width="0.1"/>
    <path d="M25.92 13.4422H23.8329C23.7525 12.0874 23.3806 10.7546 22.742 9.53275L24.5243 8.50361C25.3575 10.0478 25.8344 11.7356 25.92 13.4422ZM25.21 20.5471L25.1672 20.5214L25.21 20.5471C26.4136 18.5395 27.05 16.2756 27.05 14C27.05 6.94566 21.0248 0.95 14 0.95C6.94301 0.95 0.95 6.97791 0.95 14C0.95 21.047 6.96776 27.05 14 27.05C18.6762 27.05 22.9014 24.3973 25.21 20.5471ZM19.4257 5.82921L20.4526 4.05089C21.8363 4.96965 23.0304 6.16374 23.9491 7.5474L22.1708 8.57428C21.442 7.49356 20.5064 6.55798 19.4257 5.82921ZM14.5578 4.16711V2.08001C16.2645 2.16562 17.9524 2.64249 19.4964 3.47571L18.4673 5.25801C17.2455 4.61946 15.9127 4.24754 14.5578 4.16711ZM9.5327 5.25796L8.50356 3.47576C10.0477 2.64249 11.7355 2.16562 13.4422 2.08001V4.16711C12.0873 4.24749 10.7545 4.61946 9.5327 5.25796ZM5.82921 8.57428L4.05089 7.5474C4.96965 6.16374 6.16379 4.9696 7.5474 4.05089L8.57428 5.82921C7.49361 6.55798 6.55803 7.49361 5.82921 8.57428ZM4.16711 13.4422H2.08001C2.16562 11.7356 2.64254 10.0477 3.47571 8.50356L5.25797 9.5327C4.61946 10.7545 4.24754 12.0873 4.16711 13.4422ZM2.08001 14.5578H4.16711C4.24749 15.9127 4.61946 17.2455 5.25797 18.4673L3.47571 19.4964C2.64249 17.9523 2.16562 16.2644 2.08001 14.5578ZM8.57433 22.1708L7.54745 23.9491C6.16374 23.0304 4.9696 21.8363 4.05089 20.4526L5.82926 19.4257C6.55808 20.5064 7.49366 21.442 8.57433 22.1708ZM13.4422 23.8328V25.9199C11.7355 25.8343 10.0476 25.3575 8.50356 24.5242L9.5327 22.742C10.7545 23.3805 12.0873 23.7525 13.4422 23.8328ZM5.26484 14C5.26484 9.25061 9.28811 5.26484 14 5.26484C18.7534 5.26484 22.7352 9.29736 22.7352 14C22.7352 18.734 18.7301 22.7352 14 22.7352C9.26542 22.7352 5.26484 18.7295 5.26484 14ZM14.5578 25.92V23.8329C15.9127 23.7525 17.2455 23.3805 18.4673 22.742L19.4964 24.5243C17.9523 25.3576 16.2645 25.8344 14.5578 25.92ZM22.1707 19.4259L23.9492 20.4527C23.0303 21.8363 21.8362 23.0304 20.4526 23.9491L19.4257 22.1708C20.5063 21.4421 21.4419 20.5065 22.1707 19.4259ZM23.8329 14.5527H25.92C25.8344 16.2595 25.3574 17.9522 24.5242 19.4965L22.7419 18.4675C23.3805 17.2455 23.7525 15.9077 23.8329 14.5527Z" fill="#2C3034" stroke="#2C3034" stroke-width="0.1"/>
    <path d="M21.349 11.809L21.349 11.809C21.4372 12.1042 21.2695 12.415 20.9742 12.5032L20.9742 12.5032C20.6783 12.5915 20.3681 12.423 20.2801 12.1284L20.2801 12.1284C19.9904 11.1591 19.4681 10.2544 18.7696 9.51239L18.7696 9.51238C18.5584 9.28798 18.5691 8.935 18.7934 8.72387L21.349 11.809ZM21.349 11.809C21.0098 10.674 20.3988 9.61553 19.582 8.74769L19.582 8.74769M21.349 11.809L19.582 8.74769M19.582 8.74769C19.3708 8.5234 19.0178 8.51262 18.7935 8.72386L19.582 8.74769Z" fill="#2C3034" stroke="#2C3034" stroke-width="0.1"/>
    <path d="M19.0781 12.4266C18.4067 12.4266 17.8327 12.8493 17.6071 13.4422H16.5285C16.3123 12.4614 15.5386 11.6877 14.5578 11.4715V10.3929C15.1507 10.1673 15.5734 9.59331 15.5734 8.92188C15.5734 8.05424 14.8676 7.34844 14 7.34844C13.1324 7.34844 12.4266 8.05424 12.4266 8.92188C12.4266 9.59326 12.8493 10.1673 13.4422 10.3929V11.4715C12.4614 11.6877 11.6877 12.4614 11.4715 13.4422H10.3929C10.1673 12.8493 9.59331 12.4266 8.92188 12.4266C8.05424 12.4266 7.34844 13.1324 7.34844 14C7.34844 14.8676 8.05424 15.5734 8.92188 15.5734C9.59326 15.5734 10.1673 15.1507 10.3929 14.5578H11.4715C11.6877 15.5386 12.4614 16.3123 13.4422 16.5285V17.6071C12.8493 17.8327 12.4266 18.4067 12.4266 19.0781C12.4266 19.9458 13.1324 20.6516 14 20.6516C14.8676 20.6516 15.5734 19.9458 15.5734 19.0781C15.5734 18.4067 15.1507 17.8327 14.5578 17.6071V16.5285C15.5386 16.3123 16.3123 15.5386 16.5285 14.5578H17.6071C17.8327 15.1507 18.4067 15.5734 19.0781 15.5734C19.9458 15.5734 20.6516 14.8676 20.6516 14C20.6516 13.1324 19.9458 12.4266 19.0781 12.4266ZM8.92188 14.4578C8.66948 14.4578 8.46406 14.2524 8.46406 14C8.46406 13.7476 8.66948 13.5422 8.92188 13.5422C9.17427 13.5422 9.37969 13.7476 9.37969 14C9.37969 14.2524 9.17427 14.4578 8.92188 14.4578ZM14 8.46406C14.2524 8.46406 14.4578 8.66948 14.4578 8.92188C14.4578 9.17427 14.2524 9.37969 14 9.37969C13.7476 9.37969 13.5422 9.17427 13.5422 8.92188C13.5422 8.66948 13.7476 8.46406 14 8.46406ZM14 19.5359C13.7476 19.5359 13.5422 19.3305 13.5422 19.0781C13.5422 18.8257 13.7476 18.6203 14 18.6203C14.2524 18.6203 14.4578 18.8257 14.4578 19.0781C14.4578 19.3305 14.2524 19.5359 14 19.5359ZM14 15.4734C13.1876 15.4734 12.5266 14.8124 12.5266 14C12.5266 13.1876 13.1876 12.5266 14 12.5266C14.8124 12.5266 15.4734 13.1876 15.4734 14C15.4734 14.8124 14.8124 15.4734 14 15.4734ZM19.0781 14.4578C18.8257 14.4578 18.6203 14.2524 18.6203 14C18.6203 13.7476 18.8257 13.5422 19.0781 13.5422C19.3305 13.5422 19.5359 13.7476 19.5359 14C19.5359 14.2524 19.3305 14.4578 19.0781 14.4578Z" fill="#2C3034" stroke="#2C3034" stroke-width="0.1"/>
</svg>
