<svg width="18" height="18" viewBox="0 0 18 18" fill="none" xmlns="http://www.w3.org/2000/svg">
<path fill-rule="evenodd" clip-rule="evenodd" d="M0 2.45455C0 1.09894 1.09894 0 2.45455 0H15.5455C16.9011 0 18 1.09894 18 2.45455V15.5455C18 16.9011 16.9011 18 15.5455 18H2.45455C1.09894 18 0 16.9011 0 15.5455V2.45455ZM2.45455 1.63636C2.00268 1.63636 1.63637 2.00267 1.63637 2.45454V15.5454C1.63637 15.9973 2.00268 16.3636 2.45455 16.3636H15.5455C15.9973 16.3636 16.3636 15.9973 16.3636 15.5454V2.45454C16.3636 2.00267 15.9973 1.63636 15.5455 1.63636H2.45455Z" fill="#2C3034"/>
<path fill-rule="evenodd" clip-rule="evenodd" d="M0 2.45455C0 1.09894 1.09894 0 2.45455 0H15.5455C16.9011 0 18 1.09894 18 2.45455V9.81818H0V2.45455ZM2.45455 1.63636C2.00268 1.63636 1.63637 2.00267 1.63637 2.45454V8.18181H16.3636V2.45454C16.3636 2.00267 15.9973 1.63636 15.5455 1.63636H2.45455Z" fill="#2C3034"/>
<path fill-rule="evenodd" clip-rule="evenodd" d="M2.45455 18C1.09894 18 0 16.9011 0 15.5455V2.45455C0 1.09894 1.09894 0 2.45455 0H9.81818V18H2.45455ZM1.63637 15.5454C1.63637 15.9973 2.00268 16.3636 2.45455 16.3636H8.18182V1.63636H2.45455C2.00268 1.63636 1.63637 2.00267 1.63637 2.45454V15.5454Z" fill="#2C3034"/>
</svg>
