<svg width="16" height="21" viewBox="0 0 16 21" fill="none" xmlns="http://www.w3.org/2000/svg">
<path d="M9.72223 12.9533C9.88829 13.3979 9.66299 13.8991 9.20012 14.0038C8.38368 14.1885 7.53596 14.211 6.70572 14.0667C5.59221 13.8732 4.55032 13.3866 3.6871 12.6571C2.82388 11.9276 2.17046 10.9814 1.794 9.91576C1.41755 8.8501 1.33162 7.70343 1.54505 6.59357C1.75849 5.48371 2.26359 4.4507 3.00844 3.60068C3.7533 2.75066 4.71105 2.1143 5.78328 1.75699C6.8555 1.39968 8.00353 1.3343 9.10939 1.56758C9.93393 1.74152 10.7129 2.07681 11.4026 2.55115C11.7936 2.82008 11.8169 3.3691 11.4978 3.72036C11.1787 4.07163 10.6383 4.08958 10.2343 3.84051C9.78063 3.56077 9.28035 3.36004 8.75467 3.24915C7.94739 3.07885 7.10933 3.12658 6.32661 3.38742C5.54388 3.64825 4.84472 4.1128 4.30098 4.73331C3.75723 5.35382 3.38851 6.10792 3.2327 6.91812C3.07689 7.72832 3.13962 8.56539 3.41444 9.34332C3.68925 10.1212 4.16624 10.812 4.79639 11.3445C5.42655 11.8771 6.18713 12.2322 6.99999 12.3735C7.5293 12.4655 8.06836 12.4646 8.59343 12.3731C9.06095 12.2916 9.55616 12.5087 9.72223 12.9533Z" fill="#2C3034"/>
<path d="M5.94635 8.08886C5.75171 7.65604 5.94393 7.14124 6.39901 7.00664C7.20753 6.76749 8.05837 6.69054 8.9021 6.78359C10.0316 6.90815 11.1072 7.33282 12.0171 8.0135C12.927 8.69419 13.6382 9.60606 14.0766 10.6544C14.5151 11.7028 14.6649 12.8494 14.5104 13.9752C14.356 15.1011 13.903 16.165 13.1985 17.0566C12.494 17.9482 11.5636 18.6349 10.504 19.0455C9.44438 19.456 8.29419 19.5754 7.17285 19.3913C6.33523 19.2537 5.53653 18.9505 4.82226 18.5025C4.42023 18.2503 4.37372 17.7028 4.6777 17.3383C4.98169 16.9739 5.52086 16.9331 5.93498 17.1649C6.40393 17.4274 6.91679 17.6076 7.45137 17.6954C8.26995 17.8298 9.10959 17.7427 9.8831 17.443C10.6566 17.1433 11.3358 16.642 11.8501 15.9911C12.3644 15.3402 12.6951 14.5636 12.8078 13.7417C12.9205 12.9199 12.8112 12.0828 12.4911 11.3175C12.171 10.5522 11.6519 9.88654 10.9877 9.38964C10.3234 8.89274 9.53826 8.58273 8.71372 8.4918C8.17524 8.43242 7.6328 8.46789 7.1105 8.5944C6.64927 8.70613 6.14098 8.52168 5.94635 8.08886Z" fill="#2C3034"/>
</svg>
