<svg width="40" height="40" viewBox="0 0 40 40" fill="none" xmlns="http://www.w3.org/2000/svg">
<path d="M9.91383 29.7415C7.99202 27.8197 7.99202 24.6926 9.91383 22.7708L12.8957 19.7889L9.95256 16.8458C8.03075 14.924 8.03075 11.7969 9.95256 9.87511C11.8744 7.9533 15.0014 7.9533 16.9232 9.87511L19.8664 12.8183L22.7708 9.91383C24.6926 7.99202 27.8197 7.99202 29.7415 9.91383C31.6633 11.8356 31.6633 14.9627 29.7415 16.8845L26.8371 19.7889L29.7802 22.7321C31.702 24.6539 31.702 27.781 29.7802 29.7028C29.3525 30.1305 28.659 30.1305 28.2312 29.7028C27.8034 29.275 27.8034 28.5815 28.2312 28.1537C29.2989 27.0861 29.2989 25.3488 28.2312 24.2811L24.5135 20.5635C24.0857 20.1357 24.0857 19.4422 24.5135 19.0144L28.1925 15.3355C29.2601 14.2678 29.2601 12.5305 28.1925 11.4629C27.1248 10.3952 25.3875 10.3952 24.3199 11.4629L20.6409 15.1418C20.2131 15.5696 19.5196 15.5696 19.0919 15.1418L15.3742 11.4241C14.3065 10.3565 12.5693 10.3565 11.5016 11.4241C10.4339 12.4918 10.4339 14.2291 11.5016 15.2967L15.2193 19.0144C15.6471 19.4422 15.6471 20.1357 15.2193 20.5635L11.4629 24.3199C10.3952 25.3875 10.3952 27.1248 11.4629 28.1925C12.5305 29.2601 14.2678 29.2601 15.3355 28.1925L19.0919 24.4361C19.5196 24.0083 20.2131 24.0083 20.6409 24.4361C21.0687 24.8638 21.0687 25.5573 20.6409 25.9851L16.8845 29.7415C14.9627 31.6633 11.8356 31.6633 9.91383 29.7415Z" fill="#2C3034"/>
</svg>
