<svg width="14" height="14" viewBox="0 0 14 14" fill="none" xmlns="http://www.w3.org/2000/svg">
<path d="M13.6335 7.5338H13.2661L13.5259 7.27393C13.669 7.13077 13.669 6.89876 13.5259 6.75555C13.3827 6.61249 13.1507 6.61249 13.0076 6.75555L12.7346 7.02848V3.49911C12.7438 2.6321 12.1354 1.88709 11.2876 1.72611C10.2554 1.51111 9.57459 2.2657 9.15543 2.76192L8.21894 1.82538C8.13296 1.7395 8.01648 1.69118 7.89496 1.69118C7.77344 1.69118 7.65692 1.73945 7.57098 1.82538L6.67159 2.72478C6.12714 2.52279 5.54546 2.41701 4.94742 2.41701C3.62595 2.41701 2.38358 2.93162 1.44912 3.86604C0.514653 4.80045 0 6.04278 0 7.36425C0 8.68571 0.514653 9.92813 1.44902 10.8625C2.38349 11.7969 3.62586 12.3115 4.94728 12.3115C6.26875 12.3115 7.51116 11.7969 8.44554 10.8625C9.37991 9.92813 9.89456 8.68571 9.89456 7.36425C9.89456 6.76625 9.78878 6.18448 9.58679 5.64003L10.4862 4.74068C10.5721 4.6548 10.6204 4.53823 10.6204 4.4167C10.6204 4.29523 10.5721 4.1787 10.4862 4.09277L9.67565 3.28214C10.1088 2.768 10.5478 2.3193 11.1405 2.44426C11.1432 2.44487 11.1458 2.44539 11.1484 2.44586C11.6482 2.53957 12.007 2.97928 12.0016 3.4953V7.00241L11.7549 6.7556C11.6117 6.61254 11.3796 6.61254 11.2365 6.7556C11.0934 6.89881 11.0934 7.13082 11.2365 7.27398L11.4964 7.53385H11.1289C10.9265 7.53385 10.7624 7.69798 10.7624 7.90035C10.7624 8.10271 10.9266 8.2668 11.1289 8.2668H11.4964L11.2365 8.52667C11.0934 8.66983 11.0934 8.90184 11.2365 9.04505C11.3081 9.1166 11.4018 9.15233 11.4956 9.15233C11.5895 9.15233 11.6833 9.11656 11.7549 9.04505L12.0016 8.79828V8.95822C12.0016 9.16063 12.1657 9.32472 12.3681 9.32472C12.5705 9.32472 12.7346 9.16063 12.7346 8.95822V8.77217L13.0075 9.04509C13.0791 9.11665 13.1729 9.15238 13.2667 9.15238C13.3605 9.15238 13.4542 9.1166 13.5258 9.04509C13.669 8.90189 13.669 8.66988 13.5258 8.52672L13.266 8.26685H13.6335C13.8359 8.26685 14 8.10276 14 7.90039C14 7.69789 13.8359 7.5338 13.6335 7.5338ZM7.79762 10.2146C7.0363 10.976 6.02405 11.3953 4.94728 11.3953C3.87055 11.3953 2.85831 10.976 2.09694 10.2146C1.33561 9.45326 0.916269 8.44097 0.916269 7.36425C0.916269 6.28752 1.33561 5.27528 2.09694 4.5139C2.85831 3.75258 3.8706 3.33324 4.94733 3.33324C6.02405 3.33324 7.03625 3.75258 7.79762 4.5139C8.559 5.27523 8.97834 6.28752 8.97834 7.36425C8.97834 8.44097 8.559 9.45326 7.79762 10.2146ZM8.44554 3.86599C8.16935 3.58981 7.86602 3.35054 7.54195 3.15015L7.89487 2.79723L9.5143 4.4167L9.16133 4.76967C8.96094 4.44551 8.72176 4.14227 8.44554 3.86599Z" fill="#FF5757"/>
</svg>
