<svg width="24" height="23" viewBox="0 0 24 23" fill="none" xmlns="http://www.w3.org/2000/svg">
<path fill-rule="evenodd" clip-rule="evenodd" d="M3.48987 0.839499L0.729866 7.2795C0.548742 7.70499 0.592775 8.19292 0.847152 8.57911C1.10153 8.9653 1.53243 9.19841 1.99487 9.2L22.0049 9.2C22.4673 9.19841 22.8982 8.9653 23.1526 8.57911C23.407 8.19292 23.451 7.70499 23.2699 7.2795L20.5099 0.8395C20.2938 0.332019 19.7964 0.00189883 19.2449 -1.80758e-07L4.75487 -8.14136e-07C4.20333 0.00189815 3.70588 0.332018 3.48987 0.839499ZM18.6353 2.30001L20.6018 6.90001L3.35184 6.90001L5.36434 2.30001L18.6353 2.30001Z" fill="url(#paint0_linear)"/>
<path fill-rule="evenodd" clip-rule="evenodd" d="M2.79995 12.65C2.79995 13.2851 3.31482 13.8 3.94995 13.8L20.05 13.8C20.6851 13.8 21.2 13.2851 21.2 12.65C21.2 12.0149 20.6851 11.5 20.05 11.5L3.94995 11.5C3.31482 11.5 2.79995 12.0149 2.79995 12.65Z" fill="url(#paint1_linear)"/>
<path fill-rule="evenodd" clip-rule="evenodd" d="M2.79995 17.25C2.79995 17.8852 3.31482 18.4 3.94995 18.4L20.05 18.4C20.6851 18.4 21.2 17.8852 21.2 17.25C21.2 16.6149 20.6851 16.1 20.05 16.1L3.94995 16.1C3.31482 16.1 2.79995 16.6149 2.79995 17.25Z" fill="url(#paint2_linear)"/>
<path fill-rule="evenodd" clip-rule="evenodd" d="M2.79995 21.85C2.79995 22.4851 3.31482 23 3.94995 23L20.05 23C20.6851 23 21.2 22.4851 21.2 21.85C21.2 21.2149 20.6851 20.7 20.05 20.7L3.94995 20.7C3.31482 20.7 2.79995 21.2149 2.79995 21.85Z" fill="url(#paint3_linear)"/>
<defs>
<linearGradient id="paint0_linear" x1="5.17171" y1="2.35111" x2="8.91771" y2="11.4404" gradientUnits="userSpaceOnUse">
<stop stop-color="#7043F0"/>
<stop offset="1" stop-color="#70A8FF"/>
</linearGradient>
<linearGradient id="paint1_linear" x1="6.47995" y1="12.0878" x2="6.81334" y2="14.7036" gradientUnits="userSpaceOnUse">
<stop stop-color="#7043F0"/>
<stop offset="1" stop-color="#70A8FF"/>
</linearGradient>
<linearGradient id="paint2_linear" x1="6.47995" y1="16.6878" x2="6.81334" y2="19.3036" gradientUnits="userSpaceOnUse">
<stop stop-color="#7043F0"/>
<stop offset="1" stop-color="#70A8FF"/>
</linearGradient>
<linearGradient id="paint3_linear" x1="6.47995" y1="21.2878" x2="6.81334" y2="23.9036" gradientUnits="userSpaceOnUse">
<stop stop-color="#7043F0"/>
<stop offset="1" stop-color="#70A8FF"/>
</linearGradient>
</defs>
</svg>
