<svg width="20" height="23" viewBox="0 0 20 23" fill="none" xmlns="http://www.w3.org/2000/svg">
<path fill-rule="evenodd" clip-rule="evenodd" d="M16.8739 7.32487C14.5685 5.27307 13.6349 3.2789 13.8078 1.26169C13.8285 1.0436 13.7867 0.824135 13.6871 0.628985C13.5876 0.433836 13.4345 0.271071 13.2458 0.159789C13.0571 0.0485072 12.8406 -0.00668659 12.6217 0.000646281C12.4027 0.00797915 12.1904 0.0775701 12.0096 0.201228C11.2347 0.743339 10.506 1.34859 9.83097 2.0109C8.75782 2.92849 7.95984 4.12545 7.52559 5.46898C7.4585 5.74841 7.42373 6.03467 7.42188 6.32203C7.42188 6.62774 7.54327 6.92092 7.75944 7.13709C7.97562 7.35326 8.26886 7.47472 8.57458 7.47472C8.88029 7.47472 9.17346 7.35326 9.38964 7.13709C9.60581 6.92092 9.72727 6.62774 9.72727 6.32203C9.71451 6.21097 9.71451 6.09877 9.72727 5.9877C10.0568 5.0701 10.6164 4.25248 11.3525 3.61316L11.5831 3.39414C12.184 5.57391 13.4442 7.51455 15.191 8.95014C16.0977 9.87294 16.7274 11.0315 17.0085 12.2943C17.2896 13.5571 17.211 14.8734 16.7814 16.0937C16.3518 17.314 15.5887 18.3894 14.5785 19.1976C13.5684 20.0058 12.3518 20.5145 11.067 20.6659C9.78217 20.8173 8.48064 20.6053 7.3103 20.054C6.13996 19.5027 5.14773 18.6342 4.44629 17.5472C3.74486 16.4602 3.36238 15.1982 3.34229 13.9047C3.3222 12.6111 3.66533 11.3379 4.33267 10.2296C4.91089 11.3432 5.70501 12.3306 6.6688 13.1341C7.6326 13.9376 8.74679 14.5411 9.94628 14.9095C10.2428 14.986 10.5576 14.9415 10.8213 14.7859C11.085 14.6302 11.2761 14.3762 11.3525 14.0796C11.429 13.7831 11.3845 13.4684 11.2289 13.2046C11.0732 12.9409 10.8192 12.7497 10.5226 12.6733C8.43626 12.0854 6.78785 10.4371 5.56599 7.61304C5.49102 7.44151 5.37541 7.29078 5.22913 7.17396C5.08285 7.05713 4.91032 6.97767 4.72645 6.94249C4.54258 6.9073 4.35289 6.91747 4.17381 6.97204C3.99473 7.0266 3.83164 7.12397 3.69863 7.25571C2.40837 8.54513 1.52955 10.1882 1.17325 11.9772C0.816941 13.7661 0.999188 15.6206 1.69697 17.306C2.39475 18.9913 3.57667 20.4319 5.09328 21.4454C6.60988 22.459 8.39304 23 10.2172 23C12.0413 23 13.8243 22.459 15.341 21.4454C16.8576 20.4319 18.0396 18.9913 18.7373 17.306C19.4351 15.6206 19.6174 13.7661 19.2611 11.9772C18.9048 10.1882 18.0259 8.54513 16.7356 7.25571L16.8739 7.32487Z" fill="url(#paint0_linear)"/>
<defs>
<linearGradient id="paint0_linear" x1="1.00607" y1="11.5" x2="19.4492" y2="11.5" gradientUnits="userSpaceOnUse">
<stop stop-color="#7449E6"/>
<stop offset="0.984375" stop-color="#69A4FF"/>
</linearGradient>
</defs>
</svg>
