<svg width="16" height="22" viewBox="0 0 16 22" fill="none" xmlns="http://www.w3.org/2000/svg">
<path fill-rule="evenodd" clip-rule="evenodd" d="M-5.24537e-08 7.2L-3.8466e-07 14.8C-3.98572e-07 15.1183 0.126428 15.4235 0.351471 15.6485C0.576515 15.8736 0.881739 16 1.2 16L14.8 16C15.4627 16 16 15.4627 16 14.8L16 7.2C16 6.53726 15.4627 6 14.8 6L1.2 6C0.537258 6 -2.34843e-08 6.53726 -5.24537e-08 7.2ZM14 8L14 14L2 14L2 8L14 8Z" fill="#0E1317"/>
<path fill-rule="evenodd" clip-rule="evenodd" d="M3 1.2L3 3C3 3.55228 3.44771 4 4 4C4.55229 4 5 3.55228 5 3L5 2L11 2L11 3C11 3.55228 11.4477 4 12 4C12.5523 4 13 3.55228 13 3L13 1.2C13 0.537258 12.4627 -2.34843e-08 11.8 -5.24537e-08L4.2 -3.8466e-07C3.88174 -3.98572e-07 3.57652 0.126428 3.35147 0.351471C3.12643 0.576515 3 0.88174 3 1.2Z" fill="#0E1317"/>
<path fill-rule="evenodd" clip-rule="evenodd" d="M13 20.8L13 19C13 18.4477 12.5523 18 12 18C11.4477 18 11 18.4477 11 19L11 20L5 20L5 19C5 18.4477 4.55229 18 4 18C3.44771 18 3 18.4477 3 19L3 20.8C3 21.4627 3.53726 22 4.2 22L11.8 22C12.4627 22 13 21.4627 13 20.8Z" fill="#0E1317"/>
</svg>
