<svg width="23" height="23" viewBox="0 0 23 23" fill="none" xmlns="http://www.w3.org/2000/svg">
<path fill-rule="evenodd" clip-rule="evenodd" d="M0 3.13636C0 1.4042 1.4042 0 3.13636 0H19.8636C21.5958 0 23 1.4042 23 3.13636V19.8636C23 21.5958 21.5958 23 19.8636 23H3.13636C1.4042 23 0 21.5958 0 19.8636V3.13636ZM3.13601 2.0909C2.55862 2.0909 2.09055 2.55897 2.09055 3.13636V19.8636C2.09055 20.441 2.55862 20.9091 3.13601 20.9091H19.8633C20.4407 20.9091 20.9087 20.441 20.9087 19.8636V3.13636C20.9087 2.55897 20.4407 2.0909 19.8633 2.0909H3.13601Z" fill="url(#paint0_linear)"/>
<path fill-rule="evenodd" clip-rule="evenodd" d="M0 3.13636C0 1.4042 1.4042 0 3.13636 0H19.8636C21.5958 0 23 1.4042 23 3.13636V12.5455H0V3.13636ZM3.13601 2.0909C2.55862 2.0909 2.09055 2.55897 2.09055 3.13636V10.4545H20.9087V3.13636C20.9087 2.55897 20.4407 2.0909 19.8633 2.0909H3.13601Z" fill="url(#paint1_linear)"/>
<path fill-rule="evenodd" clip-rule="evenodd" d="M3.13636 23C1.4042 23 0 21.5958 0 19.8636V3.13636C0 1.4042 1.4042 0 3.13636 0H12.5455V23H3.13636ZM2.09055 19.8636C2.09055 20.441 2.55862 20.9091 3.13601 20.9091H10.4542V2.0909H3.13601C2.55862 2.0909 2.09055 2.55897 2.09055 3.13636V19.8636Z" fill="url(#paint2_linear)"/>
<defs>
<linearGradient id="paint0_linear" x1="5.87778" y1="18.4" x2="18.9111" y2="5.11111" gradientUnits="userSpaceOnUse">
<stop stop-color="#7043F0"/>
<stop offset="1" stop-color="#70A8FF"/>
</linearGradient>
<linearGradient id="paint1_linear" x1="5.87778" y1="10.0364" x2="11.7927" y2="-1.02024" gradientUnits="userSpaceOnUse">
<stop stop-color="#7043F0"/>
<stop offset="1" stop-color="#70A8FF"/>
</linearGradient>
<linearGradient id="paint2_linear" x1="3.20606" y1="18.4" x2="14.2804" y2="12.241" gradientUnits="userSpaceOnUse">
<stop stop-color="#7043F0"/>
<stop offset="1" stop-color="#70A8FF"/>
</linearGradient>
</defs>
</svg>
