<svg width="16" height="21" viewBox="0 0 16 21" fill="none" xmlns="http://www.w3.org/2000/svg">
<path d="M9.72221 12.9533C9.88828 13.3979 9.66298 13.8991 9.20011 14.0038C8.38367 14.1885 7.53595 14.211 6.70571 14.0667C5.5922 13.8732 4.55031 13.3866 3.68709 12.6571C2.82386 11.9276 2.17045 10.9814 1.79399 9.91576C1.41753 8.8501 1.33161 7.70343 1.54504 6.59357C1.75848 5.48371 2.26357 4.4507 3.00843 3.60068C3.75329 2.75066 4.71104 2.1143 5.78327 1.75699C6.85549 1.39968 8.00352 1.3343 9.10938 1.56758C9.93392 1.74152 10.7128 2.07681 11.4025 2.55115C11.7936 2.82008 11.8169 3.3691 11.4978 3.72036V3.72036C11.1787 4.07163 10.6383 4.08958 10.2343 3.84051C9.78062 3.56077 9.28034 3.36004 8.75466 3.24915C7.94738 3.07885 7.10932 3.12658 6.32659 3.38742C5.54387 3.64825 4.84471 4.1128 4.30096 4.73331C3.75722 5.35382 3.3885 6.10792 3.23269 6.91812C3.07688 7.72832 3.13961 8.56539 3.41442 9.34332C3.68924 10.1212 4.16623 10.812 4.79638 11.3445C5.42653 11.8771 6.18712 12.2322 6.99998 12.3735C7.52929 12.4655 8.06834 12.4646 8.59341 12.3731C9.06094 12.2916 9.55615 12.5087 9.72221 12.9533V12.9533Z" fill="url(#paint0_linear)"/>
<path d="M5.94635 8.08886C5.75172 7.65604 5.94394 7.14124 6.39902 7.00664C7.20754 6.76749 8.05838 6.69054 8.90211 6.78359C10.0316 6.90815 11.1072 7.33282 12.0171 8.0135C12.9271 8.69419 13.6382 9.60606 14.0766 10.6544C14.5151 11.7028 14.6649 12.8494 14.5104 13.9752C14.356 15.1011 13.903 16.165 13.1985 17.0566C12.494 17.9482 11.5636 18.6349 10.504 19.0455C9.44439 19.456 8.2942 19.5754 7.17286 19.3913C6.33524 19.2537 5.53654 18.9505 4.82227 18.5025C4.42024 18.2503 4.37373 17.7028 4.67771 17.3383V17.3383C4.98169 16.9739 5.52087 16.9331 5.93499 17.1649C6.40393 17.4274 6.9168 17.6076 7.45138 17.6954C8.26995 17.8298 9.10959 17.7427 9.88311 17.443C10.6566 17.1433 11.3358 16.642 11.8501 15.9911C12.3644 15.3402 12.6951 14.5636 12.8078 13.7417C12.9205 12.9199 12.8112 12.0828 12.4911 11.3175C12.1711 10.5522 11.6519 9.88654 10.9877 9.38964C10.3234 8.89274 9.53827 8.58273 8.71373 8.4918C8.17525 8.43242 7.6328 8.46789 7.11051 8.5944C6.64927 8.70613 6.14099 8.52168 5.94635 8.08886V8.08886Z" fill="url(#paint1_linear)"/>
<defs>
<linearGradient id="paint0_linear" x1="12.2899" y1="5.77826" x2="3.31827" y2="10.8425" gradientUnits="userSpaceOnUse">
<stop stop-color="#7043F0"/>
<stop offset="1" stop-color="#70A8FF"/>
</linearGradient>
<linearGradient id="paint1_linear" x1="3.71009" y1="15.1277" x2="12.6817" y2="10.0634" gradientUnits="userSpaceOnUse">
<stop stop-color="#7043F0"/>
<stop offset="1" stop-color="#70A8FF"/>
</linearGradient>
</defs>
</svg>
