<svg width="24" height="24" viewBox="0 0 24 24" fill="none" xmlns="http://www.w3.org/2000/svg">
<path d="M1.91429 22.1353C-0.00752043 20.2135 -0.00752043 17.0864 1.91429 15.1646L4.89619 12.1827L1.95302 9.23957C0.0312048 7.31776 0.0312048 4.19072 1.95302 2.26891C3.87483 0.347094 7.00187 0.347094 8.92368 2.26891L11.8669 5.21208L14.7713 2.30763C16.6931 0.38582 19.8201 0.38582 21.742 2.30763C23.6638 4.22944 23.6638 7.35648 21.742 9.2783L18.8375 12.1827L21.7807 15.1259C23.7025 17.0477 23.7025 20.1748 21.7807 22.0966C21.3529 22.5243 20.6594 22.5243 20.2316 22.0966C19.8039 21.6688 19.8039 20.9753 20.2316 20.5475C21.2993 19.4799 21.2993 17.7426 20.2316 16.6749L16.514 12.9573C16.0862 12.5295 16.0862 11.836 16.514 11.4082L20.1929 7.72926C21.2606 6.66159 21.2606 4.92434 20.1929 3.85667C19.1252 2.789 17.388 2.789 16.3203 3.85667L12.6414 7.53563C12.2136 7.9634 11.5201 7.9634 11.0923 7.53563L7.37465 3.81794C6.30697 2.75027 4.56973 2.75027 3.50205 3.81794C2.43438 4.88562 2.43438 6.62286 3.50205 7.69053L7.21974 11.4082C7.64751 11.836 7.64751 12.5295 7.21974 12.9573L3.46333 16.7137C2.39566 17.7813 2.39565 19.5186 3.46333 20.5863C4.531 21.6539 6.26825 21.6539 7.33592 20.5863L11.0923 16.8298C11.5201 16.4021 12.2136 16.4021 12.6414 16.8298C13.0691 17.2576 13.0691 17.9511 12.6414 18.3789L8.88496 22.1353C6.96314 24.0571 3.8361 24.0571 1.91429 22.1353Z" fill="url(#paint0_linear)"/>
<defs>
<linearGradient id="paint0_linear" x1="1.03306" y1="13.323" x2="23.7247" y2="13.1027" gradientUnits="userSpaceOnUse">
<stop stop-color="#7043F0"/>
<stop offset="1" stop-color="#70A8FF"/>
</linearGradient>
</defs>
</svg>
