<svg width="25" height="25" viewBox="0 0 25 25" fill="none" xmlns="http://www.w3.org/2000/svg">
<path d="M12.4999 7.15617C13.9755 7.15617 15.3116 7.75431 16.2784 8.72152C17.2455 9.68852 17.8435 11.0244 17.8435 12.5C17.8435 13.9756 17.2455 15.3115 16.2784 16.2785C15.3116 17.2457 13.9757 17.8438 12.4999 17.8438C11.0245 17.8438 9.68844 17.2457 8.72145 16.2785C7.75445 15.3115 7.15631 13.9756 7.15631 12.5C7.15631 11.0246 7.75445 9.68852 8.72145 8.72152C9.68844 7.75431 11.0245 7.15617 12.4999 7.15617ZM12.4999 0C15.9516 0 19.0766 1.39913 21.3387 3.6613C23.6009 5.92346 25 9.04846 25 12.5C25 15.9519 23.6009 19.0767 21.3387 21.3387C19.0766 23.6009 15.9516 25 12.4999 25C9.04819 25 5.92341 23.6009 3.66127 21.3387C1.39912 19.0767 0 15.9517 0 12.4998C0 9.04826 1.39912 5.92326 3.66127 3.66109C5.92341 1.39913 9.04819 0 12.4999 0ZM20.3473 4.65271C18.3391 2.64445 15.5647 1.40238 12.4999 1.40238C9.43535 1.40238 6.66092 2.64445 4.65267 4.65271C2.64463 6.66097 1.40237 9.43522 1.40237 12.4998C1.40237 15.5644 2.64443 18.339 4.65267 20.3471C6.66092 22.3553 9.43535 23.5974 12.4999 23.5974C15.5647 23.5974 18.3391 22.3556 20.3473 20.3471C22.3552 18.339 23.5974 15.5644 23.5974 12.4998C23.5972 9.43522 22.3552 6.66097 20.3473 4.65271ZM15.2869 9.71293C14.5737 8.99984 13.5886 8.55855 12.4999 8.55855C11.4114 8.55855 10.4261 8.99963 9.71306 9.71293C8.99976 10.426 8.55869 11.4115 8.55869 12.4998C8.55869 13.5885 8.99976 14.5736 9.71306 15.2869C10.4261 16 11.4117 16.4412 12.4999 16.4412C13.5886 16.4412 14.5737 16 15.2869 15.2869C16.0002 14.5736 16.4413 13.5883 16.4413 12.4998C16.4413 11.4115 16.0002 10.4262 15.2869 9.71293Z" fill="url(#paint0_linear)"/>
<defs>
<linearGradient id="paint0_linear" x1="6.38889" y1="20" x2="20.5556" y2="5.55556" gradientUnits="userSpaceOnUse">
<stop stop-color="#7043F0"/>
<stop offset="1" stop-color="#70A8FF"/>
</linearGradient>
</defs>
</svg>
