<svg width="23" height="25" viewBox="0 0 23 25" fill="none" xmlns="http://www.w3.org/2000/svg">
<g clip-path="url(#clip0)">
<path d="M10.6132 24.6457C16.4751 24.6457 21.2263 19.1283 21.2263 12.3228C21.2263 5.51734 16.4751 0 10.6132 0C4.75206 0 0 5.51734 0 12.3228C0 19.1283 4.75206 24.6457 10.6132 24.6457Z" fill="#FEB500"/>
<path d="M20.0559 4.47565C19.3792 3.51924 18.5612 2.67615 17.6312 1.97658C17.1675 1.62743 16.6805 1.31936 16.1702 1.05812C14.8249 0.363731 13.3391 0.00133273 11.832 0C10.5903 0 9.39609 0.243992 8.28784 0.698294C4.13532 2.38241 1.16016 6.9509 1.16016 12.3228C1.16016 13.16 1.23007 13.9741 1.36911 14.7644C1.91399 17.9026 3.49158 20.612 5.67835 22.3963C6.13081 22.7685 6.60658 23.0938 7.11048 23.378C8.07326 23.9252 9.1116 24.3146 10.2078 24.506C10.7358 24.5988 11.2807 24.6457 11.8312 24.6457C17.7244 24.6457 22.5038 19.1291 22.5038 12.3228C22.5038 9.3407 21.5869 6.60339 20.0559 4.47565ZM11.832 21.9486C11.7098 21.9486 11.5885 21.9486 11.472 21.9371C10.3518 21.88 9.25829 21.5682 8.27096 21.0244C7.76283 20.7448 7.28472 20.4117 6.84446 20.0303C4.81441 18.2748 3.49801 15.4734 3.49801 12.3163C3.49801 11.4799 3.59043 10.6658 3.76483 9.89277C4.13532 8.23658 4.88353 6.7488 5.89293 5.56335C7.40703 3.78968 9.50619 2.69131 11.832 2.69131C12.9571 2.69131 14.03 2.9468 15.0097 3.41178C15.5291 3.65964 16.0211 3.9637 16.4772 4.31874C17.4189 5.05506 18.2077 5.97584 18.7973 7.0273C19.6613 8.54465 20.166 10.3643 20.166 12.3171C20.1716 17.6414 16.437 21.9486 11.832 21.9486Z" fill="#FADB21"/>
<path d="M11.7723 2.69702C11.6445 2.69702 11.5231 2.70277 11.3945 2.70852C15.8267 2.93526 19.3588 7.14967 19.3588 12.3228C19.3588 17.4959 15.8267 21.7103 11.3961 21.9428C11.5231 21.9486 11.6453 21.9543 11.7731 21.9543C16.378 21.9543 20.1127 17.6413 20.1127 12.3285C20.1127 7.01576 16.378 2.69702 11.7731 2.69702H11.7723Z" fill="#FFA000"/>
<path d="M6.70312 12.3229C6.70312 15.4561 8.98231 18.0078 11.7783 18.0078C14.5734 18.0078 16.8526 15.4561 16.8526 12.3229C16.8513 11.8312 16.793 11.3415 16.679 10.8638L16.6669 10.7998C16.0698 8.41077 14.1097 6.64368 11.7839 6.64368C8.97669 6.64368 6.70312 9.19039 6.70312 12.3229ZM14.4167 11.3116C14.0574 10.1368 13.0947 9.2709 11.9462 9.20107V7.04458C13.9819 7.12673 15.6929 8.65476 16.278 10.748L14.4167 11.3116ZM9.3303 12.3229C9.3303 10.8113 10.4321 9.57897 11.7839 9.57897C13.1348 9.57897 14.2375 10.8113 14.2375 12.3229C14.2375 13.8345 13.1348 15.0667 11.7839 15.0667C10.4209 15.0667 9.3303 13.8345 9.3303 12.3229Z" fill="#FFA000"/>
<path d="M17.0532 10.8638L17.0411 10.7997C17.0288 10.7599 17.0191 10.7193 17.0122 10.6781C16.6586 9.376 15.8983 8.27106 14.8954 7.54483C14.4261 7.20534 13.9018 6.95336 13.3467 6.80053C12.9586 6.69535 12.5587 6.64287 12.1573 6.64444C9.34445 6.64444 7.07812 9.18952 7.07812 12.3228C7.07812 13.9215 7.66882 15.369 8.62598 16.4033C9.03183 16.8387 9.49554 17.2051 10.0123 17.4729C10.6617 17.8155 11.3866 18.002 12.1525 18.002C12.6102 18.003 13.0655 17.9343 13.5034 17.7982C15.6436 17.1295 17.2268 14.927 17.2268 12.3171C17.2254 11.8273 17.1671 11.3395 17.0532 10.8638ZM12.314 7.04452C13.1801 7.08512 14.016 7.38193 14.7202 7.89891C15.6251 8.56187 16.321 9.56742 16.6522 10.7479L14.7901 11.3115C14.6145 10.7132 14.2646 10.1839 13.7871 9.79416C13.367 9.44695 12.8528 9.23991 12.314 9.20102V7.04452ZM12.1516 15.0667C11.8438 15.0667 11.5537 15.0026 11.2813 14.8917C10.7243 14.6592 10.2663 14.2 9.99381 13.6249C9.80174 13.219 9.70279 12.7737 9.70449 12.3228C9.70449 10.8753 10.7131 9.68407 11.9829 9.58549C12.0407 9.57892 12.0994 9.57892 12.1573 9.57892C12.7078 9.57892 13.2181 9.78266 13.6304 10.1318C14.2219 10.6313 14.6109 11.4273 14.6109 12.3228C14.6044 13.8344 13.5026 15.0667 12.1516 15.0667Z" fill="#FADB21"/>
<path d="M6.83611 20.0369L5.67643 22.3963C3.49046 20.6119 1.91207 17.9026 1.36719 14.7643L3.75648 9.89929C3.57845 10.6943 3.48894 11.5073 3.48966 12.3228C3.48966 15.4791 4.80686 18.2805 6.83611 20.0369Z" fill="#FFE85F"/>
<path d="M13.3436 6.80059L13.1636 7.16699C12.8845 7.0962 12.599 7.05518 12.3117 7.04458V8.893L11.975 9.57897C10.7052 9.67756 9.69577 10.8696 9.69577 12.3171C9.69577 12.7878 9.80024 13.229 9.98509 13.6192L8.61725 16.3976C7.66571 15.3691 7.07422 13.9215 7.07422 12.3229C7.07422 9.18957 9.34858 6.64368 12.155 6.64368C12.5665 6.64368 12.961 6.69625 13.3444 6.80059H13.3436Z" fill="#FFE95F"/>
<path d="M16.1679 1.05812L15.0074 3.41753C14.0123 2.94306 12.9277 2.69714 11.8297 2.69706C9.50389 2.69706 7.3983 3.79543 5.89062 5.56828L8.27991 0.698294C9.40896 0.236872 10.6138 -0.000128751 11.8297 5.24723e-08C13.3368 0.00136329 14.8226 0.36376 16.1679 1.05812ZM11.4697 21.9429L10.2055 24.506C9.11819 24.3128 8.07104 23.9316 7.10898 23.3789L8.26304 21.0301C9.25245 21.5736 10.3478 21.8851 11.4697 21.942V21.9429Z" fill="#FFE85F"/>
<path d="M17.006 10.6781L13.502 17.7982C13.0642 17.9337 12.6093 18.0023 12.1519 18.002C11.4076 18.0009 10.6742 17.8196 10.0117 17.4729L11.2815 14.8859C11.5483 15.0026 11.8441 15.0609 12.1511 15.0609C13.5028 15.0609 14.6047 13.8286 14.6047 12.317C14.6047 11.4216 14.2221 10.6255 13.6242 10.1252L13.7873 9.79413C14.2589 10.1894 14.6075 10.7167 14.7903 11.3115L16.6516 10.7479C16.3156 9.56164 15.6253 8.56267 14.7204 7.8997L14.8948 7.5448C15.8921 8.27103 16.658 9.37597 17.006 10.6781Z" fill="#FFE95F"/>
<path d="M20.0545 4.47563L18.7959 7.03303C18.2032 5.98406 17.4152 5.06389 16.4766 4.32447L17.6306 1.97656C18.5468 2.66253 19.3649 3.50459 20.0553 4.47563H20.0545Z" fill="#FFE85F"/>
</g>
<defs>
<clipPath id="clip0">
<rect width="22.5026" height="24.6457" fill="white"/>
</clipPath>
</defs>
</svg>
