<svg width="24" height="24" viewBox="0 0 24 24" fill="none" xmlns="http://www.w3.org/2000/svg">
<path d="M20.4992 15.1C20.2618 14.9821 19.9873 14.9633 19.7361 15.0477C19.4848 15.132 19.2773 15.3127 19.1592 15.55C18.5263 16.8282 17.5631 17.914 16.3695 18.6948C15.1759 19.4756 13.7952 19.9231 12.3705 19.9909C10.9458 20.0588 9.52882 19.7445 8.26641 19.0806C7.004 18.4167 5.94204 17.4274 5.19052 16.2151C4.43901 15.0028 4.02527 13.6116 3.99217 12.1857C3.95906 10.7597 4.30779 9.35087 5.00223 8.10501C5.69667 6.85915 6.71157 5.8216 7.94181 5.09984C9.17205 4.37809 10.5729 3.99836 11.9992 4C13.4903 3.99354 14.9531 4.40764 16.2195 5.19475C17.486 5.98187 18.5049 7.11011 19.1592 8.45C19.2786 8.6887 19.4878 8.8702 19.741 8.9546C19.9942 9.03899 20.2705 9.01935 20.5092 8.9C20.7479 8.78065 20.9294 8.57137 21.0138 8.3182C21.0982 8.06502 21.0786 7.7887 20.9592 7.55C19.9558 5.53075 18.2994 3.90986 16.2589 2.95043C14.2184 1.991 11.9136 1.74934 9.71842 2.26468C7.52328 2.78001 5.56673 4.02209 4.16634 5.78932C2.76595 7.55655 2.00391 9.74519 2.00391 12C2.00391 14.2548 2.76595 16.4435 4.16634 18.2107C5.56673 19.9779 7.52328 21.22 9.71842 21.7353C11.9136 22.2507 14.2184 22.009 16.2589 21.0496C18.2994 20.0901 19.9558 18.4693 20.9592 16.45C21.0188 16.3314 21.0542 16.2021 21.0633 16.0696C21.0724 15.9372 21.055 15.8042 21.0122 15.6786C20.9694 15.5529 20.902 15.437 20.8139 15.3377C20.7258 15.2384 20.6188 15.1576 20.4992 15.1ZM20.9992 11H11.4092L13.7092 8.71C13.8025 8.61676 13.8764 8.50607 13.9269 8.38425C13.9773 8.26243 14.0033 8.13186 14.0033 8C14.0033 7.86814 13.9773 7.73757 13.9269 7.61575C13.8764 7.49393 13.8025 7.38324 13.7092 7.29C13.616 7.19676 13.5053 7.1228 13.3835 7.07234C13.2616 7.02188 13.1311 6.99591 12.9992 6.99591C12.8674 6.99591 12.7368 7.02188 12.615 7.07234C12.4931 7.1228 12.3825 7.19676 12.2892 7.29L8.28921 11.29C8.19817 11.3851 8.12681 11.4972 8.07921 11.62C7.97919 11.8635 7.97919 12.1365 8.07921 12.38C8.12681 12.5028 8.19817 12.6149 8.28921 12.71L12.2892 16.71C12.3822 16.8037 12.4928 16.8781 12.6146 16.9289C12.7365 16.9797 12.8672 17.0058 12.9992 17.0058C13.1312 17.0058 13.2619 16.9797 13.3838 16.9289C13.5056 16.8781 13.6162 16.8037 13.7092 16.71C13.8029 16.617 13.8773 16.5064 13.9281 16.3846C13.9789 16.2627 14.005 16.132 14.005 16C14.005 15.868 13.9789 15.7373 13.9281 15.6154C13.8773 15.4936 13.8029 15.383 13.7092 15.29L11.4092 13H20.9992C21.2644 13 21.5188 12.8946 21.7063 12.7071C21.8939 12.5196 21.9992 12.2652 21.9992 12C21.9992 11.7348 21.8939 11.4804 21.7063 11.2929C21.5188 11.1054 21.2644 11 20.9992 11Z" fill="white"/>
</svg>
