<svg width="29" height="17" viewBox="0 0 29 17" fill="none" xmlns="http://www.w3.org/2000/svg">
<path fill-rule="evenodd" clip-rule="evenodd" d="M15.6038 16.638C15.6038 16.638 16.1167 16.5821 16.3794 16.3051C16.6199 16.0513 16.6115 15.5724 16.6115 15.5724C16.6115 15.5724 16.5795 13.3361 17.6374 13.0059C18.6799 12.6811 20.0185 15.1685 21.4391 16.125C22.5122 16.8481 23.3267 16.6899 23.3267 16.6899L27.1229 16.638C27.1229 16.638 29.1078 16.5179 28.1668 14.9857C28.0889 14.8601 27.6177 13.8518 25.345 11.7806C22.9639 9.6125 23.2836 9.96316 26.1499 6.21231C27.8957 3.92824 28.5935 2.53378 28.3753 1.93752C28.1682 1.36718 26.8838 1.51863 26.8838 1.51863L22.6109 1.54456C22.6109 1.54456 22.2939 1.50226 22.059 1.64007C21.8297 1.77515 21.6809 2.09034 21.6809 2.09034C21.6809 2.09034 21.0054 3.85729 20.1033 5.3609C18.2003 8.53186 17.44 8.69969 17.1286 8.50321C16.4044 8.04339 16.5851 6.65849 16.5851 5.67472C16.5851 2.60064 17.0605 1.31943 15.6607 0.987866C15.1965 0.877346 14.8545 0.805031 13.6661 0.792751C12.1412 0.777742 10.8513 0.798209 10.1201 1.14887C9.63361 1.38219 9.2583 1.90341 9.48765 1.93342C9.76983 1.97026 10.4092 2.10261 10.7484 2.55561C11.1863 3.14096 11.171 4.45355 11.171 4.45355C11.171 4.45355 11.4226 8.07205 10.583 8.52095C10.0075 8.82931 9.21799 8.2003 7.52077 5.3227C6.65201 3.8491 5.99592 2.21996 5.99592 2.21996C5.99592 2.21996 5.86942 1.91569 5.64285 1.75195C5.36902 1.55411 4.98676 1.49271 4.98676 1.49271L0.926503 1.51863C0.926503 1.51863 0.316283 1.53501 0.0924898 1.79562C-0.106283 2.02621 0.0771996 2.50513 0.0771996 2.50513C0.0771996 2.50513 3.25618 9.80625 6.85634 13.4862C10.1576 16.8591 13.9051 16.638 13.9051 16.638H15.6038Z" fill="url(#paint0_linear)"/>
<defs>
<linearGradient id="paint0_linear" x1="5.72235e-08" y1="8.92377" x2="29.6278" y2="8.92377" gradientUnits="userSpaceOnUse">
<stop stop-color="#647AE8"/>
<stop offset="1" stop-color="#54A3F5"/>
</linearGradient>
</defs>
</svg>
