<svg width="22" height="22" viewBox="0 0 22 22" fill="none" xmlns="http://www.w3.org/2000/svg">
<path fill-rule="evenodd" clip-rule="evenodd" d="M19 3.57427H18V2.99427C17.9982 2.05467 17.5563 1.17019 16.806 0.604548C16.0558 0.0389051 15.0838 -0.142556 14.18 0.114269L2.73 3.38427C2.56115 3.43704 2.40932 3.53366 2.29 3.66427C0.947662 3.99124 0.0021984 5.19268 0 6.57427V18.5743C0 20.2311 1.34315 21.5743 3 21.5743H19C20.6569 21.5743 22 20.2311 22 18.5743V6.57427C22 4.91742 20.6569 3.57427 19 3.57427ZM14.73 2.03427C15.0377 1.94775 15.3682 2.01352 15.6193 2.21126C15.8705 2.409 16.0119 2.71486 16 3.03427V3.61427H9.36L14.73 2.03427ZM20 13.5743H17C16.4477 13.5743 16 13.1266 16 12.5743C16 12.022 16.4477 11.5743 17 11.5743H20V13.5743ZM20 9.57427H17.15C15.6644 9.53631 14.3621 10.5613 14.05 12.0143C13.8831 12.8928 14.1167 13.7999 14.6873 14.4884C15.2578 15.177 16.1058 15.5751 17 15.5743H20V18.5743C20 19.1266 19.5523 19.5743 19 19.5743H3C2.44772 19.5743 2 19.1266 2 18.5743V6.57427C2 6.02198 2.44772 5.57427 3 5.57427H19C19.5523 5.57427 20 6.02198 20 6.57427V9.57427Z" fill="url(#paint0_linear)"/>
<defs>
<linearGradient id="paint0_linear" x1="5.62222" y1="17.2594" x2="17.8407" y2="4.55555" gradientUnits="userSpaceOnUse">
<stop stop-color="#7043F0"/>
<stop offset="1" stop-color="#70A8FF"/>
</linearGradient>
</defs>
</svg>
