<svg id="Layer_1" enable-background="new 0 0 512.002 512.002" height="512" viewBox="0 0 512.002 512.002" width="512" xmlns="http://www.w3.org/2000/svg"><g><g><path d="m427.165 210c23.176-13.203 38.836-38.14 38.836-66.667 0-39.085-29.397-71.432-67.243-76.09-4.658-37.846-37.006-67.243-76.091-67.243-28.527 0-53.464 15.66-66.667 38.836-13.202-23.176-38.139-38.836-66.666-38.836-39.085 0-71.432 29.397-76.09 67.243-37.846 4.658-67.243 37.005-67.243 76.09 0 28.527 15.66 53.464 38.836 66.667-23.176 13.203-38.836 38.14-38.836 66.667 0 26.096 13.115 49.174 33.089 63.027-21.669 43.971-33.089 92.974-33.089 142.308 0 16.542 13.458 30 30 30s30-13.458 30-30c0-33.885 6.299-66.57 18.724-97.455 13.635 21.3 37.496 35.453 64.609 35.453 28.527 0 53.464-15.66 66.667-38.836 13.203 23.176 38.14 38.836 66.666 38.836 39.085 0 71.432-29.396 76.09-67.243 37.846-4.658 67.243-37.006 67.243-76.091.001-28.526-15.659-53.463-38.835-66.666zm-104.498-190c29.904 0 54.456 23.289 56.511 52.68l-50.761 50.761c-3.905 3.905-3.905 10.237 0 14.143 1.953 1.953 4.512 2.929 7.071 2.929s5.119-.977 7.071-2.929l50.761-50.761c29.391 2.055 52.68 26.606 52.68 56.511 0 31.246-25.421 56.667-56.667 56.667h-109.19l9.851-9.851c3.906-3.905 3.906-10.237 0-14.142-3.905-3.906-10.237-3.905-14.142 0l-9.853 9.852v-109.193c.002-31.246 25.422-56.667 56.668-56.667zm-256.666 123.333c0-29.905 23.289-54.456 52.681-56.511l50.76 50.761c1.953 1.953 4.512 2.929 7.071 2.929s5.119-.977 7.071-2.929c3.906-3.905 3.906-10.237 0-14.142l-50.761-50.762c2.055-29.389 26.607-52.679 56.511-52.679 31.246 0 56.667 25.421 56.667 56.667v109.19l-9.851-9.851c-3.905-3.906-10.237-3.905-14.142 0-3.906 3.905-3.906 10.237 0 14.142l9.852 9.852h-109.192c-31.246 0-56.667-25.42-56.667-56.667zm20 338.668c0 5.514-4.486 10-10 10s-10-4.486-10-10c0-46.157 10.652-91.999 30.869-133.147 5.223 1.872 10.701 3.204 16.374 3.903.253 2.054.602 4.077 1.015 6.078-18.75 38.532-28.258 79.95-28.258 123.166zm103.333-82.001c-29.904 0-54.456-23.289-56.511-52.68l18.94-18.94c3.905-3.905 3.905-10.237 0-14.143s-10.237-3.905-14.143 0l-18.94 18.94c-29.391-2.055-52.68-26.607-52.68-56.511 0-31.246 25.421-56.667 56.667-56.667h109.191l-9.852 9.852c-3.906 3.905-3.906 10.237 0 14.142 1.953 1.953 4.512 2.929 7.071 2.929s5.119-.977 7.071-2.929l9.853-9.852v109.191c0 31.248-25.42 56.668-56.667 56.668zm203.986-66.822-50.76-50.761c-3.905-3.905-10.237-3.905-14.142 0-3.906 3.905-3.906 10.237 0 14.142l50.761 50.762c-2.055 29.391-26.606 52.68-56.511 52.68-31.246 0-56.667-25.42-56.667-56.667v-109.192l9.852 9.852c1.953 1.953 4.512 2.929 7.071 2.929s5.119-.977 7.071-2.929c3.906-3.905 3.906-10.237 0-14.142l-9.852-9.852h109.191c31.246 0 56.667 25.42 56.667 56.667 0 29.904-23.289 54.456-52.681 56.511z"/><path d="m176.514 279.488h-.007c-5.523 0-9.996 4.477-9.996 10s4.48 10 10.003 10 10-4.477 10-10-4.477-10-10-10z"/></g></g></svg>